<svg xmlns="http://www.w3.org/2000/svg" viewBox="0 0 56.87 60.02"><defs><style>.a{fill:#007d2a;}</style></defs><title>capella-logo</title><path class="a" d="M27.05,13.19,27,1S14.69.82,12.21,1.64,4,4.94,3.14,12.36c-.7,6.38-.19,31,0,37.83a6.24,6.24,0,0,0,1.19,3.5c1.58,2.19,4.72,5.82,9,7.14a4.52,4.52,0,0,0,1.27.17H27.05V49.46H15.51a1.62,1.62,0,0,1-1.65-1.65V36.27H33.65V24.73H13.86V16.48s0-3.29,4.95-3.29Z" transform="translate(-2.78 -0.98)"/><path class="a" d="M35.37,13.19,35.42,1s12.32-.18,14.79.64,8.25,3.3,9.07,10.72c.71,6.38.2,31,0,37.83a6.24,6.24,0,0,1-1.19,3.5c-1.58,2.19-4.72,5.82-8.94,7.14a4.52,4.52,0,0,1-1.27.17H35.37V49.46H46.91a1.62,1.62,0,0,0,1.65-1.65V36.27H28.78V24.73H48.56V16.48s0-3.29-4.94-3.29Z" transform="translate(-2.78 -0.98)"/></svg>